<svg xmlns="http://www.w3.org/2000/svg" width="720" height="420" viewBox="0 0 720 420" fill="none">
  <rect width="720" height="420" rx="40" fill="url(#bg)"/>
  <circle cx="98" cy="88" r="46" fill="#DCE8FF"/>
  <circle cx="606" cy="310" r="74" fill="#FFE7C9"/>
  <circle cx="556" cy="106" r="24" fill="#E7EFFD"/>
  <rect x="86" y="188" width="208" height="148" rx="24" fill="#FFFFFF"/>
  <path d="M120 240c36-52 102-52 138 0" stroke="#3655A7" stroke-width="12" stroke-linecap="round"/>
  <path d="M170 226h36v88h-36z" fill="#8EA7FF"/>
  <path d="M141 246h94l-17 80h-60l-17-80Z" fill="#3655A7"/>
  <path d="M168 246l20 24 20-24" stroke="#ffffff" stroke-width="10" stroke-linecap="round" stroke-linejoin="round"/>
  <circle cx="188" cy="166" r="36" fill="#FFDCC3"/>
  <path d="M154 164c2-30 66-40 69 8 1 12-1 24-7 31l-8-20-12 16-42-8Z" fill="#2F3E62"/>
  <rect x="340" y="128" width="284" height="204" rx="30" fill="#FFFFFF"/>
  <circle cx="430" cy="206" r="46" fill="#FFDCC3"/>
  <path d="M384 258c18-38 74-52 108-20 12 11 20 26 24 42h-132c0-8 0-14 0-22Z" fill="#4F6CC2"/>
  <path d="M444 164c38 0 40 32 36 52l-18-8-10 12-28-20c-10 4-22 6-32 4-4-22 18-40 52-40Z" fill="#263149"/>
  <circle cx="542" cy="192" r="42" fill="#FFDCC3"/>
  <path d="M500 248c14-40 82-52 118-18 15 14 22 29 24 50H502c-2-11-3-20-2-32Z" fill="#F2B44B"/>
  <path d="M580 202c-18 12-44 16-66 10-10-26 6-54 48-58 40-4 52 20 48 48l-18-8-12 12Z" fill="#243D7B"/>
  <path d="M364 94h152" stroke="#BAC8EF" stroke-width="10" stroke-linecap="round"/>
  <path d="M364 70h98" stroke="#D7E1FB" stroke-width="10" stroke-linecap="round"/>
  <defs>
    <linearGradient id="bg" x1="74" y1="36" x2="654" y2="392" gradientUnits="userSpaceOnUse">
      <stop stop-color="#F8FBFF"/>
      <stop offset="1" stop-color="#FFF4E8"/>
    </linearGradient>
  </defs>
</svg>
