<svg xmlns="http://www.w3.org/2000/svg" width="96" height="96" viewBox="0 0 96 96" fill="none">
  <rect x="8" y="8" width="80" height="80" rx="24" fill="#3655A7"/>
  <circle cx="48" cy="48" r="26" fill="#ffffff" opacity="0.18"/>
  <path d="M48 20c-4.4 0-8 3.6-8 8v4h-6c-4.4 0-8 3.6-8 8v24h12V48h20v16h12V40c0-4.4-3.6-8-8-8h-6v-4c0-4.4-3.6-8-8-8Zm0 8a2 2 0 0 1 2 2v2H46v-2a2 2 0 0 1 2-2Z" fill="#ffffff"/>
  <path d="M24 68c8.7 8.2 39.3 8.2 48 0" stroke="#9FB4FF" stroke-width="4" stroke-linecap="round"/>
</svg>
